PathFileType	4	(X/Y/Z)	OpenSim_Sub04_EMGBaseline_Magnet.trc
DataRate	CameraRate	NumFrames	NumMarkers	Units	OrigDataRate	OrigDataStartFrame	OrigNumFrames
100	100	13	8	m	100	6949	7941
Frame#	Time	torso_imu_offset_imu	pelvis_imu_offset_imu	tibia_r_imu_offset_imu	femur_r_imu_offset_imu	tibia_l_imu_offset_imu	femur_l_imu_offset_imu	toes_r_imu_offset_imu	toes_l_imu_offset_imu
				X1	Y1	Z1	X2	Y2	Z2	X3	Y3	Z3	X4	Y4	Z4	X5	Y5	Z5	X6	Y6	Z6	X7	Y7	Z7	X8		Y8	Z8	

6949	69.48000000	0.94055548	0.16168635	-0.12699679	-0.63316728	0.10997217	-0.67229626	-0.39259834	-0.72149079	-0.12830119	-0.74695429	-0.35289697	0.14678108	-0.64991238	0.46358394	0.17837308	-0.77277407	0.06305561	0.32000612	-0.68874370	-0.25029133	-0.36749293	-0.71370416	-0.25305432	-0.31885072
6950	69.49000000	0.94422492	0.16183896	-0.12341728	-0.63078046	0.11527073	-0.67399607	-0.38397202	-0.72686858	-0.13242227	-0.74581314	-0.35725830	0.14943902	-0.67095535	0.43653369	0.17462118	-0.77122328	0.06680006	0.31983062	-0.69350588	-0.25161223	-0.37003205	-0.69496354	-0.26492094	-0.34579778
6951	69.50000000	0.94164361	0.16214779	-0.12233915	-0.63133677	0.11934750	-0.66886071	-0.37800690	-0.72905433	-0.13529776	-0.74449579	-0.35621312	0.14369926	-0.69479885	0.40085528	0.16686825	-0.77074152	0.06758517	0.31581700	-0.69528874	-0.25831427	-0.37501560	-0.67914745	-0.27712045	-0.36604536
6952	69.51000000	0.94305214	0.16070910	-0.12451493	-0.63089466	0.12273580	-0.66865576	-0.37085309	-0.73261347	-0.13070338	-0.73860066	-0.36549699	0.14889898	-0.71178716	0.37170569	0.16016548	-0.76657726	0.08226611	0.31221000	-0.70685049	-0.25797945	-0.37348364	-0.66334903	-0.28549513	-0.37978421
6953	69.52000000	0.94265714	0.15540809	-0.12366626	-0.62931985	0.12295558	-0.67607494	-0.36311364	-0.73293168	-0.13468378	-0.73810920	-0.37300235	0.14548552	-0.72260751	0.34463221	0.15516357	-0.76523110	0.08657178	0.31851081	-0.70879600	-0.26725393	-0.37697198	-0.64562638	-0.29707957	-0.40100714
6954	69.53000000	0.93671811	0.15774233	-0.12513620	-0.63157912	0.12453956	-0.67636990	-0.35557192	-0.73729663	-0.14047344	-0.73423595	-0.37627280	0.14535682	-0.73632148	0.31796600	0.14914775	-0.76905560	0.09730205	0.31520325	-0.72016355	-0.26797387	-0.37503428	-0.62449070	-0.30940659	-0.41947877
6955	69.54000000	0.94410137	0.15504406	-0.13115970	-0.62753208	0.12638128	-0.67235495	-0.34364141	-0.74232870	-0.13898594	-0.73719094	-0.37564313	0.14776471	-0.74311440	0.30010879	0.13862867	-0.77154207	0.10044477	0.32714024	-0.72706104	-0.27596242	-0.37721876	-0.61298360	-0.31753636	-0.43424967
6956	69.55000000	0.93773359	0.15634946	-0.13053988	-0.62398875	0.13637552	-0.67168454	-0.34011240	-0.74974447	-0.14125077	-0.73525469	-0.37708308	0.13895936	-0.75545384	0.27591291	0.13623035	-0.76501087	0.10303546	0.31187754	-0.73482627	-0.27861463	-0.37677555	-0.59392075	-0.32620999	-0.45565101
6957	69.56000000	0.94323332	0.16015347	-0.13035321	-0.63289612	0.13761113	-0.66993985	-0.33216430	-0.74858184	-0.14748362	-0.73002274	-0.38608054	0.13983427	-0.76099242	0.25639783	0.14022933	-0.76689815	0.10758105	0.32106395	-0.74574965	-0.28669579	-0.37022385	-0.57909628	-0.33465763	-0.46533736
6958	69.57000000	0.94376793	0.16027456	-0.12799555	-0.63090959	0.13916570	-0.67633927	-0.32002953	-0.75013260	-0.14231007	-0.73498274	-0.39082219	0.13476657	-0.76646235	0.23782408	0.13186611	-0.76668381	0.11203126	0.32021609	-0.75086842	-0.29136011	-0.35963784	-0.56753727	-0.34389483	-0.47446792
6959	69.58000000	0.94287755	0.16153259	-0.12976400	-0.62742749	0.14110919	-0.66634297	-0.31115662	-0.75922147	-0.15081972	-0.73263861	-0.39074796	0.13364419	-0.76860856	0.22797648	0.13173973	-0.75625852	0.11223862	0.31876486	-0.76215980	-0.29865584	-0.35826752	-0.55321562	-0.35440217	-0.48693134
6960	69.59000000	0.94613099	0.16049042	-0.13561447	-0.63140008	0.15071014	-0.67700448	-0.30086520	-0.76347484	-0.15053384	-0.72468618	-0.39570172	0.13205597	-0.77208924	0.21928214	0.13093633	-0.75743566	0.10636022	0.33274250	-0.76733132	-0.29880900	-0.34669999	-0.54026790	-0.35947898	-0.49688382
6961	69.60000000	0.94164555	0.16403170	-0.13498614	-0.63254871	0.15010488	-0.67109173	-0.29156039	-0.76196807	-0.15446715	-0.72612707	-0.39856404	0.12388475	-0.76856842	0.21384415	0.12826223	-0.75658617	0.10957499	0.33847024	-0.77845936	-0.30690664	-0.34336693	-0.53216349	-0.36249104	-0.49366363
